<svg width="42" height="24" viewBox="0 0 42 24" fill="none" xmlns="http://www.w3.org/2000/svg">
<path d="M1.25 3.10208C1.25 1.30208 3.19375 0.17291 4.75625 1.06666L19.5646 9.52708C19.9236 9.73201 20.2219 10.0282 20.4295 10.3857C20.637 10.7432 20.7463 11.1491 20.7463 11.5625C20.7463 11.9758 20.637 12.3818 20.4295 12.7393C20.2219 13.0968 19.9236 13.393 19.5646 13.5979L4.75625 22.0583C4.39978 22.2619 3.99609 22.3684 3.58557 22.3669C3.17505 22.3655 2.77211 22.2563 2.41707 22.0502C2.06204 21.8441 1.76736 21.5483 1.56255 21.1925C1.35773 20.8368 1.24995 20.4334 1.25 20.0229V3.10208ZM21.5625 3.10208C21.5625 1.30208 23.5062 0.17291 25.0687 1.06666L39.8771 9.52708C40.236 9.73201 40.5344 10.0282 40.742 10.3857C40.9495 10.7432 41.0588 11.1491 41.0588 11.5625C41.0588 11.9758 40.9495 12.3818 40.742 12.7393C40.5344 13.0968 40.236 13.393 39.8771 13.5979L25.0687 22.0583C24.7123 22.2619 24.3086 22.3684 23.8981 22.3669C23.4876 22.3655 23.0846 22.2563 22.7296 22.0502C22.3745 21.8441 22.0799 21.5483 21.875 21.1925C21.6702 20.8368 21.5624 20.4334 21.5625 20.0229V3.10208Z" stroke="black" stroke-width="1.5" stroke-linecap="round" stroke-linejoin="round"/>
</svg>
