<svg width="50" height="50" viewBox="0 0 50 50" fill="none" xmlns="http://www.w3.org/2000/svg">
<path d="M18.75 25H26.5625M18.75 31.25H26.5625M18.75 37.5H26.5625M32.8125 39.0625H37.5C38.7432 39.0625 39.9355 38.5686 40.8146 37.6896C41.6936 36.8105 42.1875 35.6182 42.1875 34.375V12.725C42.1875 10.3604 40.4271 8.35417 38.0708 8.15833C37.2916 8.09371 36.5117 8.03815 35.7312 7.99167M35.7312 7.99167C35.8695 8.43976 35.9376 8.90606 35.9375 9.375C35.9375 9.7894 35.7729 10.1868 35.4799 10.4799C35.1868 10.7729 34.7894 10.9375 34.375 10.9375H25C24.1375 10.9375 23.4375 10.2375 23.4375 9.375C23.4375 8.89375 23.5104 8.42917 23.6458 7.99167M35.7312 7.99167C35.1417 6.07917 33.3583 4.6875 31.25 4.6875H28.125C27.1234 4.68774 26.1482 5.00863 25.3422 5.60321C24.5362 6.19778 23.9417 7.03479 23.6458 7.99167M23.6458 7.99167C22.8625 8.03958 22.0833 8.09583 21.3042 8.15833C18.9479 8.35417 17.1875 10.3604 17.1875 12.725V17.1875M17.1875 17.1875H10.1562C8.8625 17.1875 7.8125 18.2375 7.8125 19.5312V42.9687C7.8125 44.2625 8.8625 45.3125 10.1562 45.3125H30.4687C31.7625 45.3125 32.8125 44.2625 32.8125 42.9687V19.5312C32.8125 18.2375 31.7625 17.1875 30.4687 17.1875H17.1875ZM14.0625 25H14.0792V25.0167H14.0625V25ZM14.0625 31.25H14.0792V31.2667H14.0625V31.25ZM14.0625 37.5H14.0792V37.5167H14.0625V37.5Z" stroke="black" stroke-width="1.5" stroke-linecap="round" stroke-linejoin="round"/>
</svg>
