<svg width="44" height="40" viewBox="0 0 44 40" fill="none" xmlns="http://www.w3.org/2000/svg">
<path d="M4.8125 1.25V24.6875C4.8125 25.9307 5.30636 27.123 6.18544 28.0021C7.06451 28.8811 8.2568 29.375 9.5 29.375H14.1875M4.8125 1.25H1.6875M4.8125 1.25H39.1875M14.1875 29.375H29.8125M14.1875 29.375L12.1042 35.625M39.1875 1.25H42.3125M39.1875 1.25V24.6875C39.1875 25.9307 38.6936 27.123 37.8146 28.0021C36.9355 28.8811 35.7432 29.375 34.5 29.375H29.8125M29.8125 29.375L31.8958 35.625M12.1042 35.625H31.8958M12.1042 35.625L11.0625 38.75M31.8958 35.625L32.9375 38.75M15.75 18.4375V21.5625M22 13.75V21.5625M28.25 9.0625V21.5625" stroke="black" stroke-width="1.5" stroke-linecap="round" stroke-linejoin="round"/>
</svg>
